<svg xmlns="http://www.w3.org/2000/svg" width="702.238" height="190.332"><defs><linearGradient x1="93.62" y1="243.99" x2="93.62" y2="369.01" gradientUnits="userSpaceOnUse" spreadMethod="pad" id="a"><stop offset="0" stop-color="#f4c257"/><stop offset="1" stop-color="#f6b110"/></linearGradient></defs><path d="M298.893 95.036c0-6.383-1.165-12.42-3.494-18.114-2.329-5.692-5.563-10.652-9.703-14.879-4.14-4.226-9.1-7.568-14.88-10.026-5.778-2.458-12.161-3.688-19.147-3.688-6.987 0-13.37 1.251-19.15 3.752-5.778 2.502-10.781 5.887-15.007 10.157-4.227 4.27-7.505 9.25-9.833 14.943-2.329 5.693-3.494 11.73-3.494 18.114 0 6.382 1.165 12.42 3.494 18.113 2.328 5.693 5.563 10.652 9.704 14.879 4.14 4.226 9.1 7.569 14.878 10.027 5.78 2.458 12.162 3.687 19.149 3.687 6.986 0 13.369-1.25 19.148-3.752 5.78-2.501 10.782-5.887 15.008-10.156 4.227-4.27 7.504-9.251 9.833-14.944 2.33-5.693 3.494-11.73 3.494-18.113zm-16.69.259c0 4.399-.755 8.56-2.265 12.485-1.51 3.925-3.6 7.331-6.275 10.22-2.674 2.89-5.887 5.176-9.639 6.858-3.752 1.682-7.87 2.523-12.355 2.523-4.486 0-8.626-.863-12.421-2.588-3.795-1.724-7.052-4.053-9.768-6.986-2.717-2.933-4.83-6.361-6.34-10.286-1.51-3.924-2.264-8.086-2.264-12.485 0-4.4.754-8.56 2.264-12.486 1.51-3.924 3.6-7.331 6.275-10.22 2.674-2.89 5.887-5.176 9.639-6.858 3.752-1.682 7.87-2.523 12.356-2.523 4.485 0 8.625.863 12.42 2.588s7.051 4.054 9.768 6.986c2.718 2.933 4.83 6.362 6.34 10.286 1.51 3.925 2.264 8.087 2.264 12.486zm93.477 33.897l-9.445-9.315c-2.5 2.501-5.153 4.55-7.957 6.146-2.803 1.595-6.059 2.393-9.768 2.393-3.019 0-5.779-.582-8.28-1.746-2.502-1.165-4.658-2.74-6.47-4.723-1.81-1.984-3.212-4.313-4.204-6.986-.992-2.674-1.488-5.564-1.488-8.67 0-3.018.496-5.843 1.488-8.474.992-2.63 2.35-4.938 4.075-6.921a19.163 19.163 0 016.21-4.723c2.416-1.164 5.046-1.746 7.893-1.746 3.968 0 7.31.797 10.027 2.393 2.717 1.596 5.283 3.644 7.698 6.146l9.704-10.48a38.045 38.045 0 00-11.192-8.54c-4.27-2.155-9.639-3.234-16.108-3.234-5.089 0-9.811.949-14.167 2.847-4.356 1.897-8.13 4.485-11.3 7.762-3.17 3.278-5.649 7.073-7.439 11.386-1.79 4.313-2.674 8.927-2.674 13.844 0 4.916.884 9.51 2.674 13.779 1.79 4.27 4.27 8.021 7.44 11.256 3.17 3.235 6.922 5.779 11.234 7.634 4.313 1.854 9.014 2.781 14.103 2.781 6.642 0 12.119-1.186 16.431-3.558 4.313-2.372 8.151-5.456 11.515-9.25zm32.928-43.73h18.372V72.136h-18.372v-18.76h-15.785v18.76h-8.668v13.326h8.668v36.054c0 3.795.475 6.986 1.445 9.531.948 2.544 2.307 4.593 4.097 6.167 1.79 1.553 3.903 2.674 6.34 3.364 2.415.69 5.067 1.035 7.914 1.035 2.932 0 5.52-.302 7.762-.905a27.21 27.21 0 006.34-2.588v-12.81c-3.105 1.553-6.34 2.33-9.704 2.33-2.674 0-4.744-.668-6.21-2.006-1.466-1.336-2.2-3.536-2.2-6.555zm100.852 20.83c0-4.917-.905-9.53-2.717-13.844-1.811-4.313-4.334-8.086-7.569-11.32-3.234-3.235-7.072-5.78-11.514-7.634-4.443-1.855-9.294-2.782-14.556-2.782-5.261 0-10.113.949-14.555 2.847-4.443 1.897-8.28 4.463-11.515 7.698-3.235 3.234-5.78 7.03-7.634 11.385-1.854 4.356-2.781 8.992-2.781 13.909 0 4.916.905 9.51 2.717 13.779 1.81 4.27 4.334 8.021 7.569 11.256 3.234 3.235 7.072 5.779 11.514 7.634 4.442 1.854 9.251 2.781 14.426 2.781 5.262 0 10.135-.949 14.62-2.846 4.485-1.898 8.346-4.464 11.58-7.698 3.234-3.235 5.779-7.009 7.634-11.321 1.854-4.313 2.781-8.928 2.781-13.844zm-15.784.259c0 3.018-.475 5.843-1.424 8.474a20.322 20.322 0 01-4.097 6.922c-1.811 1.984-3.967 3.558-6.49 4.723-2.545 1.164-5.391 1.746-8.56 1.746-2.998 0-5.758-.582-8.303-1.746a20.804 20.804 0 01-6.555-4.723c-1.833-1.984-3.278-4.334-4.291-7.051-1.035-2.717-1.553-5.585-1.553-8.604 0-3.019.474-5.844 1.423-8.475a20.323 20.323 0 014.097-6.921c1.812-1.984 3.968-3.558 6.491-4.723 2.544-1.164 5.348-1.746 8.431-1.746 3.084 0 5.887.582 8.432 1.746a20.34 20.34 0 016.555 4.787 22.109 22.109 0 014.291 7.052c1.035 2.673 1.553 5.52 1.553 8.539zm106.416-31.052v64.95h15.784V49.882h-16.949L571.37 92.707l-27.56-42.825h-16.949v90.567h15.784v-64.69l28.335 42.436h.518zm38.75 64.95h63.396v-14.362h-47.612V49.882H638.84z" fill="#042435" fill-rule="evenodd"/><path d="M87.785 238.15l-3.293-3.292c-5.713-5.713-13.25-8.57-20.787-8.57l-.024-.025c-7.535 0-15.081 2.867-20.81 8.595l-.002.001c-5.713 5.713-8.57 13.25-8.57 20.787v.047c0 6.226 1.95 12.452 5.847 17.649 1.389 1.852 3.311 2.9 5.62 3.063 6.345.454 11.719-7.396 7.53-13.06a12.915 12.915 0 011.253-16.806l.003-.001c2.504-2.504 5.816-3.756 9.13-3.756v-.024a12.915 12.915 0 019.13 3.78l3.292 3.293 11.681-11.681zm42.472 115.741h.001c10.081-10.082 15.121-23.363 15.122-36.634 0-13.274-5.04-26.554-15.122-36.634l-6.692-6.691-2.743-2.743-9.678-9.679-11.68 11.68h-.001l18.261 18.263 1.152 1.152c6.656 6.818 9.985 15.733 9.985 24.652 0 9.05-3.428 18.097-10.283 24.953l-.002.002c-6.856 6.855-15.902 10.282-24.953 10.283-9.051 0-18.098-3.428-24.953-10.285h-.002c-6.855-6.856-10.283-15.902-10.283-24.953 0-8.965 3.363-17.926 10.09-24.757l1.046-1.047 24.102-24.103.001-.001 5.839-5.839 5.84-5.84 2.924-2.924 6.208-6.208a12.909 12.909 0 019.13-3.78v.024c3.314 0 6.625 1.253 9.13 3.757l.002.001a12.908 12.908 0 013.78 9.13 12.933 12.933 0 01-2.527 7.676c-6.005 8.115 6.848 18.398 13.15 9.997 3.897-5.198 5.847-11.424 5.85-17.65v-.047c-.003-7.537-2.86-15.072-8.573-20.788h-.002c-5.727-5.728-13.274-8.595-20.81-8.595l-.023.023c-7.538.002-15.076 2.86-20.788 8.572l-9.131 9.13-5.84 5.84v.001l-5.84 5.841-24.955 24.953c-10.08 10.08-15.12 23.36-15.122 36.634.001 13.271 5.042 26.552 15.122 36.633l.001.001c10.081 10.08 23.36 15.121 36.634 15.121 13.273 0 26.553-5.04 36.634-15.121" fill="url(#a)" transform="matrix(1.33333 0 0 -1.33333 -45.731 492.016)"/></svg>